<svg xmlns="http://www.w3.org/2000/svg" xmlns:xlink="http://www.w3.org/1999/xlink" width="455.941" height="137.971" viewBox="0 0 455.941 137.971">
  <defs>
    <clipPath id="clip-path">
      <circle id="Ellipse_2" data-name="Ellipse 2" cx="52.799" cy="52.799" r="52.799" transform="translate(170.538 278.575) rotate(-67.5)" fill="none"/>
    </clipPath>
  </defs>
  <g id="animal_sale" transform="translate(-170.538 -181.014)">
    <g id="Group_30" data-name="Group 30">
      <path id="Path_28" data-name="Path 28" d="M239.524,192.524A57.476,57.476,0,1,0,297,250,57.476,57.476,0,0,0,239.524,192.524Zm0,111.061A53.585,53.585,0,1,1,293.109,250,53.585,53.585,0,0,1,239.524,303.585Z" fill="#fff" opacity="0.9"/>
      <path id="Path_29" data-name="Path 29" d="M239.524,194.369A55.631,55.631,0,1,0,295.155,250,55.63,55.63,0,0,0,239.524,194.369Zm0,108.088A52.457,52.457,0,1,1,291.98,250,52.457,52.457,0,0,1,239.524,302.457Z" fill="#9e4d1b"/>
      <g id="Group_18" data-name="Group 18" opacity="0.9">
        <g id="Group_17" data-name="Group 17" clip-path="url(#clip-path)">
          <g id="Group_16" data-name="Group 16">
            <rect id="Rectangle_75" data-name="Rectangle 75" width="190.73" height="106.022" transform="translate(140.281 196.989)" fill="#b2dee8"/>
            <path id="Path_30" data-name="Path 30" d="M292.72,264.844l-106.393.139s4.036-16.147,28.833-23.354,38.924-2.884,55.647,1.73,21.913,0,21.913,0" fill="#89bb2a"/>
            <path id="Path_31" data-name="Path 31" d="M292.72,264.54l-106.393-.14s4.036,16.147,28.833,23.355,38.924,2.884,55.647-1.73,21.913,0,21.913,0" fill="#9e4e1b"/>
          </g>
        </g>
      </g>
      <g id="Group_29" data-name="Group 29">
        <g id="Group_28" data-name="Group 28" clip-path="url(#clip-path)">
          <g id="Group_27" data-name="Group 27">
            <path id="Path_32" data-name="Path 32" d="M256.117,224.854a9.479,9.479,0,0,0,2.551-.571,10.129,10.129,0,0,1,3.929-.8c1,.112,4.243.841,3.981,1.626s-1.145,3.446-1.936,4.148-.8,1.012-1.812,1.339-1.47.333-2.056.6-.658.721-1.407.806a4.771,4.771,0,0,1-2.94-.806,4.874,4.874,0,0,0-2.425-.671Z" fill="#422b22"/>
            <path id="Path_33" data-name="Path 33" d="M260.774,231.2c-.585.271-.658.721-1.407.806l-.09.007a4.591,4.591,0,0,1-.477-1.552c-.062-.659-.089-1.072.487-1.155,1.208-.177,2.177.446,3.23-.459.469-.4.378-.654.983-.884.651-.247.04-.641.337-1.093.262-.4,1.636-.009,2.428-.848a10.05,10.05,0,0,1-1.623,3.235c-.79.7-.8,1.012-1.812,1.339S261.36,230.927,260.774,231.2Z" fill="#181316"/>
            <g id="Group_19" data-name="Group 19">
              <path id="Path_34" data-name="Path 34" d="M240.126,217.973a2.745,2.745,0,0,1-.86-1.947c0-1.544.878-4.235,1.264-6.12a14.1,14.1,0,0,0,.409-4.164,4.421,4.421,0,0,0-.881-2.562A11.8,11.8,0,0,1,238.8,208.2c-.988,1.97-3.83,6.588-3.83,8.693a4.583,4.583,0,0,0,2.084,3.435,4.052,4.052,0,0,0,2.707-1.076A1.405,1.405,0,0,0,240.126,217.973Z" fill="#181316"/>
              <path id="Path_35" data-name="Path 35" d="M236.064,219.465a3.876,3.876,0,0,1-1.1-2.575c0-2.1,2.842-6.723,3.83-8.693a11.8,11.8,0,0,0,1.262-5.017,3.433,3.433,0,0,1,.736,1.624c.177,4.844-3.422,7.664-3.305,11.088C237.554,217.771,237.426,219.078,236.064,219.465Z" fill="#272127"/>
              <path id="Path_36" data-name="Path 36" d="M249.7,218.709a14.787,14.787,0,0,0,4.8-2.372c1.556-1.283,3.532-3.827,3.939-5.586s.111-2.319.488-2.331,1.368,4.552-.632,8.831a8.152,8.152,0,0,1-5.94,4.582,3.708,3.708,0,0,1-1.947-.906A2.881,2.881,0,0,1,249.7,218.709Z" fill="#181316"/>
              <path id="Path_37" data-name="Path 37" d="M254.5,216.337c1.556-1.283,3.532-3.827,3.939-5.586s.111-2.319.488-2.331c.036,0,.077.039.121.119.233,1.964.276,5.794-2.264,8.528-3.556,3.826-5.632,3.384-6.41,2.925-.171-.1-.4-.235-.635-.4a2.742,2.742,0,0,1-.044-.888A14.787,14.787,0,0,0,254.5,216.337Z" fill="#272127"/>
            </g>
            <path id="Path_38" data-name="Path 38" d="M229.832,223.461c3.559-2.753,5.223-3.337,6.38-3.531s2.52-.274,3.054-.941.962-2.443,2.59-2.944,5.265-1.195,6.809-.1,1.3,3.252,2.081,3.979,3.039,2.072,3.893,3.088,2.015,2.45,3.022,2.618,2.483,3.894,2.282,5.035a17.592,17.592,0,0,1-.974,3.793,3.522,3.522,0,0,0-.436,1.242s2.328,4.8,3.026,6.324,2.241,4.115,2.729,4.366,3.321,3.368,2.778,4.189-.99,1.277-.947,1.837-.059,2.794-.785,3.394-2.035-.038-2.035-.038a3.105,3.105,0,0,1-1.39,1.4c-.862.318-4.19,1.115-5.121.7a23.553,23.553,0,0,1-2.451-1.407,25.022,25.022,0,0,1-4.262.456l-1.823-.026a10.851,10.851,0,0,1-2.608.823,8.922,8.922,0,0,1-4.22-1.069c-1.184-.844-2.344-.646-3.366-.84-.542-.1-1.024-.826-1.024-.826a54.938,54.938,0,0,0-5.882,3.857c-1.347,1.228-3.1,3.687-3.1,5.633,0,1.06.037,10.992-.755,15.937a37.42,37.42,0,0,1-24.127-50.825c.909-.482,1.673-.884,2.226-1.17C209.469,226.3,226.438,226.087,229.832,223.461Z" fill="#d1ccbf"/>
            <path id="Path_39" data-name="Path 39" d="M240.558,216.906s.563-1.544,1.217-1.544c-.579.774-.226.865-.226.865s.327-1.359,1.56-1.32c-.829.455-.359.9-.359.9s.284-1.842,1.891-1.45c-1.229.212-.9,1.242-.9,1.242s.86-1.242,1.981-.912c-1,.3-.85.751-.85.751a3.586,3.586,0,0,1,2.78-1.081,1.731,1.731,0,0,0-1.124,1.008,1.817,1.817,0,0,1,1.695-.51.8.8,0,0,0-.662.644s1.321-.6,2.114-.06c.729.5.452.533,1.359.791-.955.28-1.146-.217-1.535-.377-.617-.254-.749.2-.749.2s1.118,0,1.437.612a2.331,2.331,0,0,0,.99,1.142,2.18,2.18,0,0,1-1.594-.779,7.283,7.283,0,0,0-4.143-1.1A17.256,17.256,0,0,0,240.558,216.906Z" fill="#d1ccbf"/>
            <g id="Group_21" data-name="Group 21">
              <path id="Path_40" data-name="Path 40" d="M202.228,256.889a20.468,20.468,0,0,0,6.033-2.69,68.476,68.476,0,0,0,5.138-4.538c2.005-1.7,4.012-3.54,6.461-4.414,3.438-1.227,10.484-4.457,12.868-4.339,2.133.106,5.24,2.287,10.985,3.012,2.814.354,4.841,3.413,6.6,6.373,1.081,1.825,1.612,2.018,3.126,2.22.124,1.272,3.264,3.88,3.678,5.442a1.275,1.275,0,0,1-.324-.086,23.553,23.553,0,0,1-2.451-1.407,25.022,25.022,0,0,1-4.262.456l-1.823-.026a10.851,10.851,0,0,1-2.608.823,8.922,8.922,0,0,1-4.22-1.069c-1.184-.844-2.344-.646-3.366-.84-.542-.1-1.024-.826-1.024-.826a54.938,54.938,0,0,0-5.882,3.857c-1.347,1.228-3.1,3.687-3.1,5.633,0,1.06.037,10.992-.755,15.937A37.475,37.475,0,0,1,202.228,256.889Z" fill="#b1a08e"/>
              <path id="Path_41" data-name="Path 41" d="M233.392,234.376c-.547-.62-1.279-2.139-1.991-2.467-.66-.3-1.344-.214-1.921-.692-.719-.6,1.054-1.423,1.191-1.466a4.01,4.01,0,0,1,2.822.158C234.966,230.924,234.5,235.639,233.392,234.376Z" fill="#b1a08e"/>
              <path id="Path_42" data-name="Path 42" d="M258.543,227.742c-.877.1-1.247.884-2.192,1.274a3.381,3.381,0,0,1-3.273-.7,13.375,13.375,0,0,0-4.158-2.04,6.87,6.87,0,0,0,.271,2.25,8.539,8.539,0,0,0,1.375,5.1c.7,1.006.986,1.129,1.165.659a5.56,5.56,0,0,0,.516-2.586c0-1.165,1.035.4,2.992-.056a2.115,2.115,0,0,1,2.368,1.883,2.148,2.148,0,0,0,.345-1.678C257.534,230.728,259.233,227.667,258.543,227.742Z" fill="#b1a08e"/>
              <g id="Group_20" data-name="Group 20">
                <path id="Path_43" data-name="Path 43" d="M227.92,272.411h0c-.289-.279-.469-4.626-1.006-6.506-2.061-7.213.208-7.554,2.02-10.808.8-1.433,2.195-2.814,1.875-4.443-.386-1.976-.7-5.01-.42-5.609,2.311-.385,2.634,3.805,4.707,4.379,1.347.374,2.911-1.371,4.038-.673,2.012,1.244,3.048.53,3.628.7,1.3.384,2.473,1.322,3.743,1.694,1.4.412,2.695.572,3.878,1.559a5.979,5.979,0,0,0,1.387.78c.61.289,1.338.373,2,.7a5.014,5.014,0,0,1,2.08,3.19h0c-.668-.35-1.319-.795-1.475-.895l-.008-.005-.015-.009-.005,0-.007-.005a25.022,25.022,0,0,1-4.262.456l-1.823-.026a10.851,10.851,0,0,1-2.608.823,8.922,8.922,0,0,1-4.22-1.069c-1.184-.844-2.344-.646-3.366-.84-.542-.1-1.024-.826-1.024-.826a54.938,54.938,0,0,0-5.882,3.857c-1.347,1.228-3.1,3.687-3.1,5.633C228.047,265.077,228.059,268.59,227.92,272.411Z" fill="#907d6e"/>
                <path id="Path_44" data-name="Path 44" d="M235.1,249.6s-2.133-2.17-2.523-3.874.316-7.678.316-7.678a14.906,14.906,0,0,0-.907,7.955A5.339,5.339,0,0,0,235.1,249.6Z" fill="#907d6e"/>
                <path id="Path_45" data-name="Path 45" d="M231.882,235.964s-.513,3.249-.705,4.33a38.253,38.253,0,0,0-.554,6.6c.111,2.168.328,5.256.328,5.256a37.7,37.7,0,0,1-.942-4.813,20.961,20.961,0,0,1,.4-6.737A21.506,21.506,0,0,1,231.882,235.964Z" fill="#907d6e"/>
                <path id="Path_46" data-name="Path 46" d="M224.768,256.785c.2-1.129-6.5,3-7.805,5.117s-2.354,8.044-1.526,9.837,1.4-4.484,3.95-6.874C224.154,260.392,224.358,259.068,224.768,256.785Z" fill="#907d6e"/>
                <path id="Path_47" data-name="Path 47" d="M251.162,233.03c-.735.887.087,1.81.46,1.414a4.39,4.39,0,0,0,.335-3.824C251.505,229.635,252.175,231.808,251.162,233.03Z" fill="#907d6e"/>
              </g>
            </g>
            <g id="Group_22" data-name="Group 22">
              <path id="Path_48" data-name="Path 48" d="M243.571,253.7c1.156.276,2.408,1.98,5.608,1.923a20.543,20.543,0,0,1,4.717.057,1.023,1.023,0,0,1,.909,1.079c-.209-.13-.366-.231-.433-.274l-.008,0-.015-.01-.005,0-.007-.005a25.022,25.022,0,0,1-4.262.456l-1.8-.026C246.67,256.445,244.419,255.215,243.571,253.7Z" fill="#6c5b51"/>
              <path id="Path_49" data-name="Path 49" d="M230.447,259.3c.5-2.711,2.718-3.472,3.252-4.861.6-1.56-.927-4.889-.181-3.761a24.924,24.924,0,0,0,2.392,3.445,3.413,3.413,0,0,0,1.124.853,53.718,53.718,0,0,0-5.882,3.857,10.088,10.088,0,0,0-.788.811C230.383,259.539,230.425,259.429,230.447,259.3Z" fill="#6c5b51"/>
              <path id="Path_50" data-name="Path 50" d="M247.46,257.215a6.78,6.78,0,0,1-1.816.5,8.922,8.922,0,0,1-4.22-1.069c-1.184-.844-2.344-.646-3.366-.84a1.855,1.855,0,0,1-1.024-.826,2.894,2.894,0,0,0,2.418-.772c1.054-.2,2.822,1.723,3.775,2.2A6.522,6.522,0,0,0,247.46,257.215Z" fill="#6c5b51"/>
            </g>
            <path id="Path_51" data-name="Path 51" d="M237.968,221.061c.958-.283,2.238-.369,3.01-1.141s2.786-.638,4.2,1.007,5.136,5.538,5.286,8.526.017,5.323.286,6.018,1.879,5.226,1.678,6.334-2.585,3.088-2.853,3.659-.59,1.706-1.125,1.93a2.721,2.721,0,0,1-2.519-1.008,5.283,5.283,0,0,0-2.3-2.064,6.277,6.277,0,0,0-4.766.7,4.038,4.038,0,0,1-4.566-.1c-1.107-.906-1.611-1.611-1.409-4.33s1.511-3.624,1.409-4.632-1.323-1.28-.855-2.352-.133-3.388.855-6.308S236.112,221.61,237.968,221.061Z" fill="#422b22"/>
            <path id="Path_52" data-name="Path 52" d="M237.968,228.854c-.967-1.909-.649-4.705-1.32-5.51s-.941-.282-1.682-1.336-1.529-3.376-2.7-4.325a9.158,9.158,0,0,0-6.5-2.054c-3.021.263-2.45,1.765-2.4,2.054a61.291,61.291,0,0,0,2.207,5.929,10.79,10.79,0,0,0,4.083,3.893c1.481.6,3.529,1.276,3.948,1.948s.7,1.532,1.88,1.92C236.472,231.7,240.038,232.943,237.968,228.854Z" fill="#121011"/>
            <path id="Path_53" data-name="Path 53" d="M232.882,240.705c1.28.536,2.361,1.946,3.686,2.389.781.261,3.742.521,5.565,1.009a6.95,6.95,0,0,0-3.269.924,4.038,4.038,0,0,1-4.566-.1C233.206,244.032,232.7,243.333,232.882,240.705Z" fill="#121011"/>
            <path id="Path_54" data-name="Path 54" d="M224.818,243.433c-.2.251-.4.505-.588.768-1.258,1.789-1.35,4.48-2.788,6.1-2.028,2.29-3.945.4-4.3-1.963a7.579,7.579,0,0,1-.025-1.467c.29-.139.582-.268.872-.389C219.963,245.663,222.752,242.88,224.818,243.433Z" fill="#121011"/>
            <path id="Path_55" data-name="Path 55" d="M253.767,254.191c-.73-.238-2.84-.539-3.384-1.485-.812-1.411-.434-2.253-1.017-3.282,1.145.437,1.051,1.384,1.38,2.411s1.757,1.4,2.831,1.466C253.619,253.387,253.767,254.191,253.767,254.191Z" fill="#6c5b51"/>
            <path id="Path_56" data-name="Path 56" d="M201.875,255.839a34.634,34.634,0,0,0,7.841-2.776c-.443.957-.055,4.249.508,5.653,1.185,2.956,2.224,6.177,1.178,9.372a11.441,11.441,0,0,1-.965,2.146A37.369,37.369,0,0,1,201.875,255.839Z" fill="#121011"/>
            <path id="Path_57" data-name="Path 57" d="M254.337,250.756c1.113-1.36,1.914-3.983,4.129-4.6,1.518-.421,3.558.075,4.833.226.346.041.746.079,1.145.111.755.615,3.123,3.32,2.622,4.078-.544.82-.99,1.277-.947,1.837s-.059,2.794-.785,3.394-2.035-.038-2.035-.038a3.105,3.105,0,0,1-1.39,1.4c-.862.318-4.19,1.115-5.121.7a23.553,23.553,0,0,1-2.451-1.407,3.781,3.781,0,0,1-.717-2.353C252.881,253.871,253.454,251.836,254.337,250.756Z" fill="#b26353"/>
            <g id="Group_23" data-name="Group 23">
              <path id="Path_58" data-name="Path 58" d="M253.622,254.127a17.262,17.262,0,0,0,2.93,1.037,51.2,51.2,0,0,0,5.539.235,2.549,2.549,0,0,1,1.374.44c-.1-.041-.166-.071-.166-.071a3.105,3.105,0,0,1-1.39,1.4c-.862.318-4.19,1.115-5.121.7a23.553,23.553,0,0,1-2.451-1.407A3.746,3.746,0,0,1,253.622,254.127Z" fill="#43343f"/>
              <path id="Path_59" data-name="Path 59" d="M256.552,255.164a51.2,51.2,0,0,0,5.539.235,2.549,2.549,0,0,1,1.374.44c-.1-.041-.166-.071-.166-.071a3.623,3.623,0,0,1-.889,1.111,5.783,5.783,0,0,0-2.534.02c-1.835.17-4.643-.887-5.475-2.456h0A10.739,10.739,0,0,0,256.552,255.164Z" fill="#272127"/>
              <path id="Path_60" data-name="Path 60" d="M256.049,253.623a3.441,3.441,0,0,0,.876-.052c.182-.055.256-.321.463-.358.36-.062.446.227.742.206s.339-.25.59-.287c.523-.078.749.411,1.292.355a7.183,7.183,0,0,0,1.221-.457c.448-.158.326-.505.649-.884.657-.77.378-1.677-.269-2.549-.312-.419-.806-.617-.806-1.02s1.1-.562,1.62-.318c.347.164.835-.544,1.242-.345.264.129.316.232.638.168.14-.028.43.151.55.011a2.737,2.737,0,0,1,.355-.377.593.593,0,0,1,.313-.109c.9,1.045,1.88,2.454,1.541,2.968-.544.82-.99,1.277-.947,1.837s-.059,2.794-.785,3.394a1.986,1.986,0,0,1-1.854.039,4.21,4.21,0,0,0-2.261-.345c-1.124,0-2.474.1-3.558.008-.723-.061-2.067-.195-2.353-1.012C255.039,253.73,255.548,253.641,256.049,253.623Z" fill="#121011"/>
              <path id="Path_61" data-name="Path 61" d="M261.183,248.879a1.807,1.807,0,0,0-.362-.191.5.5,0,0,1-.014-.111c0-.393,1.1-.562,1.62-.318.347.164.835-.544,1.242-.345.264.129.316.232.638.168.14-.028.43.151.55.011a2.737,2.737,0,0,1,.355-.377.593.593,0,0,1,.313-.109,6.8,6.8,0,0,1,1.6,2.609,4.916,4.916,0,0,1-2.285.249A7.229,7.229,0,0,1,261.183,248.879Z" fill="#272127"/>
              <path id="Path_62" data-name="Path 62" d="M261.621,252.42a2.458,2.458,0,0,1-2.081.243,3.95,3.95,0,0,1-1.7-2.091c.462,0,1.656.283,1.852.262a3.021,3.021,0,0,0,1.654-1.042C262.646,250.994,262.066,252.084,261.621,252.42Z" fill="#d08b83"/>
              <path id="Path_63" data-name="Path 63" d="M261.739,250.414a3.613,3.613,0,0,0-1.71-1.624c-.572-.3-1.779-.777-2.255-.125a1.684,1.684,0,0,0,.067,1.907,4.509,4.509,0,0,0,2.549,1.548A1.162,1.162,0,0,0,261.739,250.414Z" fill="#953226"/>
              <path id="Path_64" data-name="Path 64" d="M261.087,250.062c-.533-.248-1.932-.751-2.421-.251-.54.552.229,1.075.7,1.359.54.325,1.681.839,2.139.319C262.026,250.9,261.685,250.34,261.087,250.062Z" fill="#181316"/>
            </g>
            <path id="Path_65" data-name="Path 65" d="M243.84,239.187c-.283-1.154-2.192-2.368-1.619-3.491,2.239-.068,3.772-2.517,1.8-2.229-3.053.447-2.733-2.2-1.8-3.173a7.433,7.433,0,0,0,3.224,2.02c1.837.443,2.359-1.143,3.656-.214a5.945,5.945,0,0,1,1.465,1.524,6.96,6.96,0,0,0,.18,1.847c.269.7,1.879,5.226,1.678,6.334s-2.585,3.088-2.853,3.659c-.25.53-.546,1.55-1.017,1.869-.625-.777-.995-2.854-1.363-3.514C246.275,242.176,244.727,242.812,243.84,239.187Z" fill="#272127"/>
            <path id="Path_66" data-name="Path 66" d="M258.2,229.656c.382-.663.375-1.963.71-2.605a6.633,6.633,0,0,1,1.055,3.694,18.8,18.8,0,0,1-.995,3.709,3.522,3.522,0,0,0-.436,1.242c-.688-1.4-1.6-3.124-1.544-4.2C257.034,230.554,257.8,230.357,258.2,229.656Z" fill="#181316"/>
            <g id="Group_25" data-name="Group 25">
              <path id="Path_67" data-name="Path 67" d="M246.248,231.072a2.42,2.42,0,0,0-1.889-2.154c-1.736-.3-2.142.535-2.072,1.224a1.814,1.814,0,0,0,1.555,1.76A3.184,3.184,0,0,0,246.248,231.072Z" fill="#d1ccbf"/>
              <path id="Path_68" data-name="Path 68" d="M245.908,230.023a2.38,2.38,0,0,1-1.067,1.424,1.693,1.693,0,0,1-2.242-.694,1.3,1.3,0,0,1,.1-1.641,2.539,2.539,0,0,1,1.937-.134A1.969,1.969,0,0,1,245.908,230.023Z" fill="#b1a08e"/>
              <path id="Path_69" data-name="Path 69" d="M245.264,229.289s.648,1.524-.423,2.158c-1.681.993-2.939-1.2-1.84-2.489A2.75,2.75,0,0,1,245.264,229.289Z" fill="#181316"/>
              <path id="Path_70" data-name="Path 70" d="M242.763,229.967a.927.927,0,0,1-.005-.636,1.712,1.712,0,0,1,.228-.353l.025-.024a2.755,2.755,0,0,1,2.253.335,2.854,2.854,0,0,1,.181.737,1.72,1.72,0,0,1-.063.325c-.107.357-.441.743-.837.553-.143-.068-.232-.23-.348-.307a.841.841,0,0,0-.533-.1A.927.927,0,0,1,242.763,229.967Z" fill="#121011"/>
              <path id="Path_71" data-name="Path 71" d="M244.15,230.067c.108.16.262.245.422.137a.349.349,0,0,0-.388-.58C244.024,229.732,244.043,229.907,244.15,230.067Z" fill="#d1ccbf"/>
              <path id="Path_72" data-name="Path 72" d="M243.223,229.6c.033.139.15.149.284.117s.233-.094.2-.232a.249.249,0,1,0-.484.115Z" fill="#d1ccbf"/>
              <path id="Path_73" data-name="Path 73" d="M243.538,231.072c-.741-.151-.705-.906-.768-.759a1.173,1.173,0,0,0,.954,1.221C244.414,231.659,244.084,231.184,243.538,231.072Z" fill="#d1ccbf"/>
              <g id="Group_24" data-name="Group 24">
                <path id="Path_74" data-name="Path 74" d="M245.777,229.372a2.97,2.97,0,0,0,.093.97,3.8,3.8,0,0,1-.412-1.26,1.737,1.737,0,0,0-.217.614,4.392,4.392,0,0,1-.067-.811,1.121,1.121,0,0,0-.246.558,2.338,2.338,0,0,1-.04-.7,2.629,2.629,0,0,1-.45.635,2.192,2.192,0,0,0,.132-.745,2.686,2.686,0,0,1-.686.877,2.864,2.864,0,0,0,.38-.962,2.532,2.532,0,0,1,.734.244A2.689,2.689,0,0,1,245.777,229.372Z" fill="#121011"/>
                <path id="Path_75" data-name="Path 75" d="M244.264,228.545s-.508.962-.848,1.067a3.452,3.452,0,0,0,.455-1.1s-.344.82-.594.93a2.85,2.85,0,0,0,.243-.9,2.075,2.075,0,0,1-.544.836,3.007,3.007,0,0,0,.28-.782s-.354.908-.77,1.053A3.99,3.99,0,0,0,243,228.7c.031-.016.061-.03.093-.044A2.1,2.1,0,0,1,244.264,228.545Z" fill="#121011"/>
                <path id="Path_76" data-name="Path 76" d="M241.675,229.731a2.727,2.727,0,0,0,.638-.641s.114-.08.3-.186l.007-.02-.005.019c.11-.064.243-.137.39-.206a2.212,2.212,0,0,1-.78.991,3.14,3.14,0,0,0,.334-.646A1.341,1.341,0,0,1,241.675,229.731Z" fill="#121011"/>
                <path id="Path_77" data-name="Path 77" d="M243.432,231.849s-.31.175-.36.314a.914.914,0,0,1,.18-.392,1.629,1.629,0,0,0-.609.245,1.063,1.063,0,0,1,.358-.383,1.462,1.462,0,0,0-.7.209,1.319,1.319,0,0,1,.425-.44,2.539,2.539,0,0,0-.815.152,1.159,1.159,0,0,1,.624-.365.929.929,0,0,0-.6.005c.113-.172.488-.239.488-.239a1.6,1.6,0,0,0-.664.066,1.16,1.16,0,0,1,.58-.268,1.856,1.856,0,0,0,.427.69A2.732,2.732,0,0,0,243.432,231.849Z" fill="#121011"/>
                <path id="Path_78" data-name="Path 78" d="M259.624,232.108a2.179,2.179,0,0,0,1.158.97,1.973,1.973,0,0,1-1.26-.485,2.863,2.863,0,0,0,.694.669c-.629-.142-.748-.387-.748-.387Z" fill="#121011"/>
              </g>
            </g>
            <path id="Path_79" data-name="Path 79" d="M244.612,232a2.693,2.693,0,0,1-1.18-.155,1.587,1.587,0,0,1-1.086-1.1c-.066-.268-.152-.069-.118.071a1.644,1.644,0,0,0,1.1,1.138A1.852,1.852,0,0,0,244.612,232Z" fill="#d1ccbf"/>
            <path id="Path_80" data-name="Path 80" d="M246.248,230.023a2.852,2.852,0,0,0-2.225-1.51,2.655,2.655,0,0,0-1.743.6s.754-2.066,2.117-1.813C245.493,227.508,246.248,229.68,246.248,230.023Z" fill="#272127"/>
            <path id="Path_81" data-name="Path 81" d="M248.328,225.948c.558,1.238.435,2.9-.65,2.7-.729-.135-1.565-1.585-2.233-1.944-1.119-.6-2.229-.151-3.165.805-.564.578-.775-.781-1.436-1.357-1.007-.879.957-1.262,1.175-1.664.624-1.15-.269-1.576.261-2.348C242.821,221.346,246.684,222.3,248.328,225.948Z" fill="#272127"/>
            <path id="Path_82" data-name="Path 82" d="M225.773,215.629a9.158,9.158,0,0,1,6.5,2.054,3.1,3.1,0,0,1,.3.286,7.005,7.005,0,0,0-2.756-1.087c-.911-.044-1.8-.363-2.718-.4a6.017,6.017,0,0,0-2.42.352c-.854.38-.411,1.17-.349,1.866.055.625.015,1.241.024,1.859-.506-1.388-.954-2.718-.981-2.871C223.323,217.394,222.752,215.892,225.773,215.629Z" fill="#181316"/>
            <path id="Path_83" data-name="Path 83" d="M250.746,219.92c.495.46,1.582,1.169,2.53,1.884-.779-.261-1,.343-1.859-.289a3.663,3.663,0,0,1-1.126-2.281c-.02-.1-.063-.273-.1-.461A2.523,2.523,0,0,0,250.746,219.92Z" fill="#b1a08e"/>
            <path id="Path_84" data-name="Path 84" d="M246.533,229.507s-.966-2.1-2.136-2.2a1.975,1.975,0,0,0-1.647.438,2.323,2.323,0,0,1,2.147-.836C246.417,227.237,246.533,229.507,246.533,229.507Z" fill="#121011"/>
            <path id="Path_85" data-name="Path 85" d="M250.968,250.444a2.862,2.862,0,0,0-1.5-.819,4.19,4.19,0,0,0-1.641.427,1.3,1.3,0,0,1,1.208-1A2.21,2.21,0,0,1,250.968,250.444Z" fill="#6c5b51"/>
            <path id="Path_86" data-name="Path 86" d="M246.42,230.514s.575,1.364.227,1.431c-.21.04-.256-.135-.4-.248a.852.852,0,0,0-.456-.1,5.213,5.213,0,0,1,.515-.293C246.533,231.2,246.42,230.514,246.42,230.514Z" fill="#272127"/>
            <path id="Path_87" data-name="Path 87" d="M219.081,347.618c1.794,1.109,4.385,5.05,4.046,5.85-.25.59-.918.482-1.521.542-2.654.264-6.854.676-7.672-2.19-.418-1.463-1.144-3.272.994-3.677Z" fill="#181316"/>
            <path id="Path_88" data-name="Path 88" d="M195.293,335.159c1.427.271,3.218,2.242,3.965,3.411,1.163,1.823-.291,2.13-1.872,2.37a19.684,19.684,0,0,1-4.881,0c-2.1-.239-2.022-1.117-2.516-2.966a3.786,3.786,0,0,1-.178-2.015Z" fill="#181316"/>
            <path id="Path_89" data-name="Path 89" d="M135.691,339.744c1.77.248,4.081,2.463,5.063,3.887.651.944.894,1.458-.18,1.918a7.054,7.054,0,0,1-2.391.375,24.312,24.312,0,0,1-4.906-.377c-1.828-.287-2.092-1.36-2.547-3.034-.158-.582-.657-2.023-.321-2.37Z" fill="#181316"/>
            <path id="Path_90" data-name="Path 90" d="M103.5,346.82a10.863,10.863,0,0,1,4.809,4.674c.949,1.869-1.117,1.828-2.816,1.9a16.22,16.22,0,0,1-5.659-.543c-1.75-.649-2.449-4.917-2.1-5.85C97.882,346.981,103.5,346.82,103.5,346.82Z" fill="#181316"/>
            <path id="Path_91" data-name="Path 91" d="M213.934,351.82c-.383-1.34-1.023-2.971.517-3.546a12.028,12.028,0,0,1,2.047,2.93c.8,1.434,1.278,2.417,3.114,2.294,2.193-.146-.225-2.831-.5-4.076,1.4.232,2.536,3.207,3.275,4.194.076.1.143.2.2.3a6.444,6.444,0,0,1-.988.1C218.952,354.274,214.752,354.686,213.934,351.82Z" fill="#121011"/>
            <path id="Path_92" data-name="Path 92" d="M192.505,340.938c-2.1-.239-2.022-1.117-2.516-2.966a3.786,3.786,0,0,1-.178-2.015l1.38-.2a13.4,13.4,0,0,1,1.214,1.319c1.219,1.463,2.123,2.8,4.062,2.99,2.76.275.82-1.939-.476-3.51-.162-.2,3.084,2.469,3.637,2.793.313,1.143-.92,1.392-2.242,1.592A19.684,19.684,0,0,1,192.505,340.938Z" fill="#121011"/>
            <path id="Path_93" data-name="Path 93" d="M130.73,342.513c-.158-.582-.657-2.023-.321-2.37l.556-.042c2.953,1.317,4.839,5.225,8.623,4.227.6-.157-.771-1.485-1.747-2.541a9.734,9.734,0,0,1,1.786.491,11.184,11.184,0,0,1,1.127,1.353c.651.944.894,1.458-.18,1.918a7.054,7.054,0,0,1-2.391.375,24.312,24.312,0,0,1-4.906-.377C131.449,345.26,131.185,344.187,130.73,342.513Z" fill="#121011"/>
            <path id="Path_94" data-name="Path 94" d="M101.106,350.486c1.13,1.056,2.3,2.018,3.887,1.917,2.269-.146.63-1.457-.5-3.788a16.638,16.638,0,0,1,3.948,4.091c-.383.642-1.757.639-2.951.692a16.22,16.22,0,0,1-5.659-.543c-1.644-.61-2.36-4.415-2.15-5.647C99.047,347.92,99.992,349.446,101.106,350.486Z" fill="#121011"/>
            <path id="Path_95" data-name="Path 95" d="M132.561,290.9s-8.348,10.617-9.5,17.312c-.781,4.562,2.069,12.789,3.737,15.444s5.94,8.5,6.106,10.489,4.5,5.11,4.014,6.281-5.933,2.443-7.154.7-.872-3.731-2.966-3.785-2.826-2.5-3.332-4.677-3.616-7.969-5.479-10.739-8-8.656-8.093-12.03,2.449-8.671,2.16-14.745a10.006,10.006,0,0,1,10.208-10.591C127.091,284.643,132.221,287.813,132.561,290.9Z" fill="#b1a08e"/>
            <path id="Path_96" data-name="Path 96" d="M112.059,295.152a10.006,10.006,0,0,1,10.208-10.591c4.824.082,9.954,3.252,10.294,6.343,0,0-8.348,10.617-9.5,17.312-.4,2.332.151,5.621,1.007,8.635.08,2.638,1.534,5.2,1.695,7.8.3,4.841-3.345.2-4.779-1.356-3.785-4.11-11.088-10.812-11.09-13.4,0-3.383.473-4.684,1.872-8.625a9.012,9.012,0,0,0,.3-4.44C112.088,296.28,112.086,295.72,112.059,295.152Z" fill="#907d6e"/>
            <path id="Path_97" data-name="Path 97" d="M199.562,298.031s-2.553,4.484-2.978,7.329S196.4,312,195.2,314.3s-2.274,9.2-2.107,12.252a14.458,14.458,0,0,0,2.266,7.247c1.247,2-.818,2.617-2.67,3.577s-3.508.69-3.421-.611-.576-3.871-1.761-3.838-.19-2.221,0-5.178.958-10.882.54-15.062-2.122-15.05-2.653-17.536,2.618-6.1,8.934-4.142C200.085,292.8,200.338,296.569,199.562,298.031Z" fill="#b1a08e"/>
            <path id="Path_98" data-name="Path 98" d="M118.907,316.083c-1.144,1.616-2.645-.859-3.208-1.356-1.135-1-.922-.694-1.99-1.739-1-.982-.889-2.731-.942-4.042-.187-4.574,5.695-6.036,9.248-5.121a5.04,5.04,0,0,1,2.065,1,17.2,17.2,0,0,0-1.014,3.392,9.724,9.724,0,0,0-.127,1.383c-1.309.82-2.993,1.178-4.157,2.173C118.733,312.727,119.434,315.339,118.907,316.083Z" fill="#6c5b51"/>
            <path id="Path_99" data-name="Path 99" d="M187.506,332.928c-1.187.031-.19-2.221,0-5.178s.958-10.882.54-15.062-2.122-15.05-2.653-17.536c-.523-2.442,2.513-5.973,8.612-4.234l-.325,8.478c-3.688,1.346-1.2,10.366-.592,12.85s-.7,5.792-1.084,7.963a44.456,44.456,0,0,0-.684,8.328c.131,3.391,2.668,6.645.072,9.324-1.258.282-2.191-.111-2.125-1.1C189.354,335.465,188.691,332.895,187.506,332.928Z" fill="#907d6e"/>
            <path id="Path_100" data-name="Path 100" d="M128.37,304.571c-.435,1,2.945,3.656,1.537,4.7-.738.546-1.6-.759-1.987-1.191a7.173,7.173,0,0,0-2.074-1.383Z" fill="#9b5044"/>
            <path id="Path_101" data-name="Path 101" d="M117.7,308.016a2.914,2.914,0,0,0-.9,2.475c.06.9.156,2.781-.515,2.781-.847,0-1.144-2.677-1.331-3.264a3.674,3.674,0,0,0-1.26-1.859Z" fill="#9b5044"/>
            <path id="Path_102" data-name="Path 102" d="M136.754,297.318c-3.486-.462-5.781,4.915-7.545,7.206-1.143,1.483-2.634,2.552-2.189,4.388.16.659,1.067,2.214.139,2.593s-1.372-1.18-1.883-1.711c-1.371-1.428-3.753-.108-5.532.179a17.709,17.709,0,0,1-3.19.369c-1.432-.018-2.108-.488-2.641.747-.288.67-.532,2.145-1.4,1.894-.917-.267-.169-2.428-.579-3.172-.721-1.31-3.174-1.975-4.321-3.157a19.408,19.408,0,0,1-4.227-8.4c-.8-3.057-3.206-10.249-3.428-10.737,2.117-1.041,5.28-.831,7.658-.831,2.347,0,4.729-.119,7.073,0,4.236.215,8.477.368,12.283,2.271C134.655,292.8,136.754,297.318,136.754,297.318Z" fill="#b67064"/>
            <path id="Path_103" data-name="Path 103" d="M103.391,298.255c-.8-3.057-3.206-10.249-3.428-10.737,2.117-1.041,5.28-.831,7.658-.831,2.347,0,4.729-.119,7.073,0,4.236.215,8.477.368,12.283,2.271,7.678,3.839,9.777,8.36,9.777,8.36-3.163-.419-5.345,3.969-7.041,6.5,0-3.1-.261-5.429-4.188-5.234-2.529.126-6.02,1.762-8.123,3.239a14.721,14.721,0,0,0-4.785,5.377,7.266,7.266,0,0,1-1.011,2.165c-.963-1.03-2.98-1.669-3.988-2.708A19.408,19.408,0,0,1,103.391,298.255Z" fill="#9b5c58"/>
            <path id="Path_104" data-name="Path 104" d="M134.495,294.992c-4.769-3.463-13.407-2.7-17.347,1.4-3.927,4.085-6.331,8.144-8.567,8.182-2.754.048-2.2-7.3-1.41-9.4.55-1.464,2.133-3.132,3.049-4.375a25.2,25.2,0,0,1,4.342-4.723c5.277-4.233,15.616-4.562,20.984-.1,2.485,2.066,5.2,6.631,1.341,8.622Z" fill="#855455"/>
            <path id="Path_105" data-name="Path 105" d="M114.327,232.125s-16.369-.867-21.024,3.492-5.858,6.571-5.958,12.542.751,17.293.632,23.758a115.014,115.014,0,0,1-2.7,19.066c-.873,3.559-3.208,8.893-1.746,12.981a10.261,10.261,0,0,0,2.625,4.185s1.8-11.2,1.389-13.956c-.493-3.287.172-4.918,1.036-9.634s2.3-11.027,2.8-16.451c.553-6.006-1.052-18.274,0-22.207s5.833-7.16,10.818-8.636S113.02,234.722,114.327,232.125Z" fill="#907d6e"/>
            <path id="Path_106" data-name="Path 106" d="M228.011,268.984c-.743,5.61,1.077,14.336.2,17.514-1.241,4.485-3.609,7.446-5.825,10.289s-4.025,6.093-6.288,6.768-9.838.325-13.028.1-10.486-5.425-15.021-5.425c-7.305,0-29.51,5.908-38.135,5.084-10.371-.99-13.767-7.033-17.787-9.82s-6.2-4.081-9.16-3.517-8.549,7.239-11.516,12.887c-1.765,3.361-3.864,10.177-5.757,11.219s-3.946,8.341-4.356,11.864-.192,14.269.866,16.489,3.49,4.624,2.966,5.147-7.154,2.268-8.2,1.4.146-2.825-1.222-4.711-1.845-.777-1.282-3.664-1.45-9.919-1.335-13.12.423-8.845-.461-11.831-1.705-4.505-.586-7,5.319-8.614,5.993-12.366-1.872-17.268-2.656-22.6a111.115,111.115,0,0,0-2.275-12.922c-.914-3.138-4.012-11.732-3.33-14.9s2.124-5.757,7.046-7.223a96.7,96.7,0,0,0,14.764-5.688c4.8-2.344,12.284.085,20.5-.465s15.521-3.838,24.032-3.816,20.625.4,32.535.475,25.753-2.253,29.751-3.057,6.906,12.22,8.589,17.273,8.01,12.07,6.535,13.669A25.6,25.6,0,0,0,228.011,268.984Z" fill="#d1ccbf"/>
            <path id="Path_107" data-name="Path 107" d="M87.917,273.451c.352,1.567.73,3.4.73,3.4-.973,3.031-1,6.575-1.473,9.69a58.309,58.309,0,0,1-1.937,8.727,18.5,18.5,0,0,0-1.374,5.673c.062-.7.716-2.479,1.48-2.546a20,20,0,0,1-.483,2.077,23.016,23.016,0,0,0,0,2.492,15.1,15.1,0,0,0,1.018,4.463,3.989,3.989,0,0,1,.128.582,10.762,10.762,0,0,1-2.475-4.047c-1.462-4.088.873-9.422,1.746-12.981A122.627,122.627,0,0,0,87.917,273.451Z" fill="#b1a08e"/>
            <path id="Path_108" data-name="Path 108" d="M194.327,291.01c5.758,1.787,6.011,5.559,5.235,7.021a40.781,40.781,0,0,0-1.888,3.853,7.971,7.971,0,0,0-4.585,5.268c-.381,1.373-1.369,1.864-2.137,3.035-.81,1.235-.645,2.732-1.385,3.986a3.507,3.507,0,0,1-1.4,1.494c0-1.1-.036-2.12-.122-2.979-.419-4.181-2.122-15.05-2.653-17.536S188.011,289.051,194.327,291.01Z" fill="#422b22"/>
            <path id="Path_109" data-name="Path 109" d="M91.631,312.015a5.511,5.511,0,0,1,.483-3.362c1.119-2.5,5.3-8.614,5.976-12.366s-1.879-17.268-2.663-22.6a111.173,111.173,0,0,0-2.28-12.922c-.914-3.138-4.014-11.732-3.332-14.9a12.6,12.6,0,0,1,.569-1.95c2.331-1.04,11.44,2.1,12.7,5.143,3.664,8.82,12.073,28.893,20.053,24.078,10.382-6.265,0-19.432,3.838-27.271,1.981-4.043,7.958,3.874,13.978,9.189,5.068,4.477,11.442,10.5,18.194,11.508,9.46,1.41,17.73.859,25.585-2.725,7.011-3.2,11.164-18.148,17.494-10.133,7.554,9.562,14.862,10.863,14.862.427,0-3.328,4.85-9.772,9.273-11.429.193-.072.479-.2.668-.254,2.107,3.378,7.446,13.6,6.535,14.585a25.6,25.6,0,0,0-5.555,11.955c-.743,5.61,1.077,14.326.2,17.5-1.186,4.287-3.415,7.15-5.56,9.941,0,0-.168.222-.265.348-2.218,2.842-4.025,6.1-6.288,6.772s-9.838.329-13.028.1-10.486-5.424-15.021-5.424c-7.305,0-29.51,5.909-38.135,5.086-10.371-.99-13.767-7.033-17.787-9.821s-6.2-4.08-9.16-3.517-8.549,7.24-11.516,12.888c-.522.995-1.7,3.789-2.265,5.151-.047-.162-.144-.511.48-2,2.432-5.792,2.006-11.7-2.552-9.73-3.139,1.354-5.424,7.657-6.279,10.7-.991,3.525,1.547,8.538-5.439,7.338a4.1,4.1,0,0,0-.613,3.543c.486,2.612,1.574,4.31,1.428,7.242-.238,4.758-.182,9.517,0,14.352.11,2.94.314,3.675,2.325,5.448,1.228,1.083,3.3,2.007,3.655,3.685-2.092.512-4.61.9-5.221.386-1.047-.873.146-2.825-1.222-4.711s-1.845-.777-1.282-3.664-1.45-9.919-1.335-13.12a62.115,62.115,0,0,0-.151-10.394h0c-.02-.126-.066-.389-.068-.4-.02-.108-.071-.355-.075-.375C92.666,315.539,91.716,312.716,91.631,312.015Z" fill="#b1a08e"/>
            <g id="Group_26" data-name="Group 26">
              <path id="Path_110" data-name="Path 110" d="M125.215,288.958c10.355-2.941,13.243-1.8,21.828,2.052,8.1,3.632,18.964,4.02,27.393,1.919,3.438-.857,6.228-.83,10.552-4.518,1.665-1.421,3.65-5.31,6.443-7.822a4.778,4.778,0,0,1,.628-.531l.01-.006a9.332,9.332,0,0,1,1.488-.965c2.647-1.569,6.081-2.782,9.71-1.148,3.047,1.372,13.823,4.821,13.823,13.071,0,8.656,4.994.779,7.555-1.55a7.919,7.919,0,0,0,2.617-6.926c-.424-2.625-3.227-7.188-3.66-8.574a11.747,11.747,0,0,1,1.116-8.447c.716-1.282,2.516-5.936,3.239-7.027a19.938,19.938,0,0,0,2.106-10.6c1.819,2.8,4.4,8.448,3.5,9.139a25.6,25.6,0,0,0-5.555,11.955c-.743,5.61,1.077,14.326.2,17.5-1.186,4.287-3.383,7.11-5.529,9.9,0,0-.2.262-.3.388-2.218,2.842-4.025,6.1-6.288,6.772s-9.838.329-13.028.1a14.014,14.014,0,0,1-4.163-1.441l0,.005c-1.945-.9-5.259-2.488-6.271-2.877a13.308,13.308,0,0,0-4.591-1.109c-7.305,0-29.51,5.908-38.135,5.084-10.371-.99-13.767-7.033-17.787-9.82-4-2.776-6.187-4.068-9.122-3.524A8.411,8.411,0,0,1,125.215,288.958Z" fill="#6c5b51"/>
              <path id="Path_111" data-name="Path 111" d="M125.215,288.958c10.355-2.941,13.243-1.8,21.828,2.052,8.1,3.632,18.964,4.02,27.393,1.919,3.438-.857,6.228-.83,10.552-4.518,1.665-1.421,3.65-5.31,6.443-7.822a4.778,4.778,0,0,1,.628-.531l.01-.006a9.332,9.332,0,0,1,1.488-.965c2.647-1.569,6.081-2.782,9.71-1.148,3.047,1.372,13.823,4.821,13.823,13.071,0,8.656,4.994.779,7.555-1.55a7.919,7.919,0,0,0,2.617-6.926c-.424-2.625-3.227-7.188-3.66-8.574a11.747,11.747,0,0,1,1.116-8.447c.716-1.282,2.516-5.936,3.239-7.027a19.938,19.938,0,0,0,2.106-10.6c1.819,2.8,4.4,8.448,3.5,9.139a25.6,25.6,0,0,0-5.555,11.955c-.743,5.61,1.077,14.326.2,17.5-1.186,4.287-3.383,7.11-5.529,9.9,0,0-.2.262-.3.388-2.218,2.842-4.025,6.1-6.288,6.772s-9.838.329-13.028.1a14.014,14.014,0,0,1-4.163-1.441l0,.005c-1.945-.9-5.259-2.488-6.271-2.877a13.308,13.308,0,0,0-4.591-1.109c-7.305,0-29.51,5.908-38.135,5.084-10.371-.99-13.767-7.033-17.787-9.82-4-2.776-6.187-4.068-9.122-3.524A8.411,8.411,0,0,1,125.215,288.958Z" fill="#907d6e"/>
            </g>
            <path id="Path_112" data-name="Path 112" d="M188.887,278.757c-1.708,4.242-2.785,7.427-7.167,9.875-2.724,1.522-9.509,4.059-13.936.779-3.706-2.745,3.19-1.775,11.253-7.283,3.327-2.272,7.964-6.577,10.884-9.173,2.98-2.651,6.028-8.512,6.568-7.276.519,1.188-1.194,4.284-2.791,6.481C191.987,274.513,189.549,277.112,188.887,278.757Z" fill="#d1ccbf"/>
            <path id="Path_113" data-name="Path 113" d="M216.392,303.443c-.1.04-.2.076-.3.106-1.8.537-6.953.428-10.594.248.47-2.252,5.995-2.542,7.833-3.1a12.03,12.03,0,0,0,3.909-1.892,8.286,8.286,0,0,0,3.167-3.117s0,2.164-3.688,4.984c-.673.513-2.705.857-2.3,1.888C214.681,303.212,215.659,303.174,216.392,303.443Z" fill="#6c5b51"/>
            <path id="Path_114" data-name="Path 114" d="M127.237,272.985c-1.976,3.769-5.74,7.412-7.331,10.636-1.518,3.077,8.176-3.073,10.346-5.361,3.722-3.923,3.67-9.067,1.718-13.368-.878-1.935-2.315-3.521-2.354-1.59C129.606,263.833,129.179,269.278,127.237,272.985Z" fill="#907d6e"/>
            <path id="Path_115" data-name="Path 115" d="M92.044,249.1c7.165-4.28,8.118,11.557,12.51,19.128,1.75,3.017,11.31,11.474,9.773,14.425-2.6,4.984-4.128,3.208-8.552,6.578-5.15,3.923-6.227,9.256-8.678,10.02a14.025,14.025,0,0,0,.977-2.963c.673-3.753-1.872-17.268-2.656-22.6a111.115,111.115,0,0,0-2.275-12.922c-.586-2.012-2.068-6.265-2.878-9.895A5.19,5.19,0,0,1,92.044,249.1Z" fill="#907d6e"/>
            <path id="Path_116" data-name="Path 116" d="M204.97,275.039c-2.3-.594-12.276.147-14.133,10.349s-.48,9.812.524,11.829,6.375,5.432,7.952,9.887,4.428,11.134,4.446,14.395,1.641,4.922,3.067,12.127c.8,4.044.721,9.781,1.952,10.643s2.448.8,2.764,2.212-.685,3.067,2.33,2.933,6.753-.481,5.491-2.624-4.863-9.192-5.81-12.517c-1.429-5.01-.759-9.591-.44-12.774s-1.8-10.262-1.92-14.9c-.164-6.392,3.6-14.42,2.654-18.829S209.266,276.148,204.97,275.039Z" fill="#d1ccbf"/>
            <path id="Path_117" data-name="Path 117" d="M194.742,300.27c-.915-.422-1.7-.773-2.105-.93a19.146,19.146,0,0,0-2.988-.933,7.688,7.688,0,0,1-1.731-4.012c-.016-3.385,1.553-6.895,2.992-10.222.3,3.463-.353,7.078.5,9.69C192.171,296.221,193.624,298.147,194.742,300.27Z" fill="#6c5b51"/>
            <path id="Path_118" data-name="Path 118" d="M188.046,298.231c-3.452,0-10.233,1.32-17.336,2.625a20.236,20.236,0,0,1,4.051-1.013c2.214-.46,9.222-3.166,10.632-4.691a17.811,17.811,0,0,0,3.455-5.674l3.772,9.855A13.288,13.288,0,0,0,188.046,298.231Z" fill="#6c5b51"/>
            <path id="Path_119" data-name="Path 119" d="M204.97,275.039c3.727.962,6.956,6.521,8.364,10.856-3.372-1.973-7.254-5.631-9.489-.552a43.513,43.513,0,0,0-3.3,12.252c-.238,4.084,2.087,9.061,3.287,12.872a25.189,25.189,0,0,1,.9,12.841,18.142,18.142,0,0,0,.021,2.75,13.53,13.53,0,0,1-1-4.559c-.018-3.261-2.869-9.939-4.446-14.395s-6.948-7.869-7.952-9.887-2.38-1.626-.524-11.829S202.673,274.445,204.97,275.039Z" fill="#b1a08e"/>
            <path id="Path_120" data-name="Path 120" d="M225.431,224.989c1.72,1.926,3.229,3.3,3.861,5.917.619,2.561-1.487,4.727-2.265,7.166a23.735,23.735,0,0,1-.83,3.407,21.42,21.42,0,0,1-1.967,2.722c-1.258,1.789-1.35,4.48-2.788,6.1-2.028,2.29-3.945.4-4.3-1.963-.174-1.146.21-2.276-.231-3.39-.363-.917-1.19-1.4-1.736-2.2s-.664-2.443-1.812-2.189c-1.407.312-.7,2.06-.572,2.911.354,2.4-.691,4.716-2,6.759-1.533,2.391-1.51,5.705-.562,8.477,1.661,4.859,1.865,5.174,1.359,8.5A9.213,9.213,0,0,1,210.5,270.3a37.421,37.421,0,0,1-7.34-40.719c.881-.468,1.642-.87,2.227-1.173C208.48,226.81,217.837,226.537,225.431,224.989Z" fill="#181316"/>
            <path id="Path_121" data-name="Path 121" d="M211.656,263.352c0,2.934-.108,5.352-1.5,7.83-1.546,2.751-4.731,2.878-7.1,4.573-7.328,5.249,1.721,7.973,2.38,13.08.548,4.235-6.784,10.949-11.678,8.495-5.466-2.741-4.2-10.081-2.2-14.57,1.047-2.349,3.786-5.064.742-7.1-2.432-1.629-3.93.524-6.667-.908-2.317-1.213-3.358-4.875-5.693-5.071-3.333-.28-4.376,5.214-8.789,5.6-14.15,1.234-27.915-22.758-13.835-31.016a15.544,15.544,0,0,1,9.49-1.715c2.753.412,5.393,3.085,8.351,2.811,4.088-.378,2.926-3.122,4.385-5.98a22.127,22.127,0,0,1,6.779-7.176c5.089-3.587,13.777-1.792,19.933-4.016,3.665-1.325,3.228,1.288,2.4,6.019-.547,3.129-2.191,5.8-2.4,9.16-.131,2.092-.292,5.168.4,6.778Z" fill="#181316"/>
            <path id="Path_122" data-name="Path 122" d="M207.793,298.155c3.318,2.086-1.624,4.444-3.785,6.637-1.738,1.766-1.89,2.884-3.178,2.592-2.084-.47-.547-1.917-2.121-4.464C196.8,299.835,203.569,295.5,207.793,298.155Z" fill="#422b22"/>
            <path id="Path_123" data-name="Path 123" d="M164.6,277.954c-2.175,1.63-5.479-5.839-9.07-6.782-5.443-1.428-2.927,5.593-1.3,8.206,1.5,2.41,4.253,2.392,4.406,5.847.068,1.516.02,5.551,3.49,4.7,1.119-.273,2.193-3.579,3.552-4.413,2.885-1.77,7.018-.925,5.126-5.727C169.7,276.993,167.6,275.7,164.6,277.954Z" fill="#422b22"/>
            <path id="Path_124" data-name="Path 124" d="M103.814,236.3c2.635-.991,5.257-2.1,7.809-3.349,4.349-2.124,10.9-.329,18.213-.382.088.138.176.278.262.421.438.726-.849,2.172.471,2.341,3.668.469,8.344-2.2,12.609-4.773a56.68,56.68,0,0,1,12.978-1.888c4.372.011,9.695.116,15.453.225-.4,3.174-4.32,5.7-6.526,7.584-1.814,1.548-2.779,3.282-5.072,4.116-2.669.97-4.538.637-7.166,2.273-3.69,2.3-5.973,4.052-8.932,2.123-3.812-1.162-10.34-4.1-8.152,2.69.777,2.409,6.043,3.661,7.9,5.651,4.352,4.652-2,11.371-4.495,14.243-1.994,2.3-1.288,4.813-2.77,7.285-1.742,2.9-4.344,3.006-7.109,3.976-5.368,1.884-8.621,5.832-13.524,8.482-4.147,2.242-5.825.048-6.413-3.236-1.322-4.246-.721-15.207.015-18.391,1.548-6.7,8.351-5.2,13.526-6.883,1.8-.585,5.275-3.279,4.753-6.6-.324-2.063-4.758,1.914-7.506,1.923-3.522.011-5.139-2.075-7.573-3.987-2-1.57-4.924-1.65-6.69-3.675-1.729-1.983-1.419-5.789-1.783-8.184C103.98,237.511,103.876,236.863,103.814,236.3Z" fill="#181316"/>
            <path id="Path_125" data-name="Path 125" d="M92.115,257.469c1.052-3.664,4.133-4.781,5.8-2.843,4.463,5.184,1.791,8.661-.61,9.277-3.874.993,5.01,7.279.6,12.64a9.005,9.005,0,0,1-1.756,1.726c-.295-1.8-.557-3.4-.732-4.586a111.115,111.115,0,0,0-2.275-12.922C92.909,259.959,92.534,258.8,92.115,257.469Z" fill="#121011"/>
            <path id="Path_126" data-name="Path 126" d="M87.977,271.917c.119-6.465-.731-17.787-.632-23.758s1.3-8.184,5.958-12.542,21.024-3.492,21.024-3.492c-1.307,2.6-7.141,3.664-12.126,5.14s-9.766,4.7-10.818,8.636c-1.022,3.822.465,15.519.042,21.686-.154.278-1.265,2.326-1.709,3.395a19.669,19.669,0,0,0-.731,4.139c-.152.858-.471,2.575-1.461,2.688C87.773,275.675,87.946,273.623,87.977,271.917Z" fill="#422b22"/>
            <path id="Path_127" data-name="Path 127" d="M154.654,265.131a14.949,14.949,0,0,0,4.495,1.427c8.645.895,13.4.474,22.521-1.486,8-1.72,10.938-13.237,16.709-13.237,2.533,0,7.5,6.51,12.2,8.684l1.073,2.833c0,2.934-.108,5.352-1.5,7.83-1.546,2.751-4.731,2.878-7.1,4.573-5.6,4.013-1.634,6.55.841,9.8-.316.588-.641,1.292-1.025,2.168a29.229,29.229,0,0,0-2.542,8.779c-2.123,1.288-4.555,1.835-6.572.824-5.466-2.74-4.2-10.081-2.2-14.57,1.047-2.349,3.786-5.064.742-7.1-2.432-1.629-3.93.524-6.667-.908-2.317-1.213-3.358-4.875-5.693-5.071-3.333-.28-4.376,5.214-8.789,5.6C164.709,275.839,158.344,271.166,154.654,265.131Z" fill="#422b22"/>
            <path id="Path_128" data-name="Path 128" d="M109.369,265.69a7.647,7.647,0,0,1,.965-2.4c1.16,1.865,2.031,4.314,3.141,5.685,2.076,2.56,5.687,5.488,9.342,4.425,3.681-1.07,4.788-8.05,4.785-11.376a35.414,35.414,0,0,0-.839-6.293,4.926,4.926,0,0,0,.885-3.525c-.108-.687-.673-.7-1.48-.419a12.778,12.778,0,0,1,.222-4.13c1.353-5.549,7.1.14,9.658,2.333,2.893,2.483,5.788,6.335,8.939,8.462h0c-.777,3.582-4.155,7.208-5.817,9.124-1.994,2.3-1.288,4.813-2.77,7.285-1.742,2.9-4.344,3.006-7.109,3.976-5.368,1.884-8.621,5.832-13.524,8.482-4.147,2.242-5.825.048-6.413-3.236C108.032,279.835,108.633,268.874,109.369,265.69Z" fill="#422b22"/>
            <path id="Path_129" data-name="Path 129" d="M88.367,260.46c1.6-4.124,1.066-8.895,1.577-13.372.21-1.839.776-4.548,2.063-5.712,1.395-1.263,3.948-.992,4.26-3.527a9.477,9.477,0,0,0,2.851.57c-3.747,1.711-6.9,4.376-7.735,7.482-1.022,3.822.465,15.519.042,21.686-.154.278-1.265,2.326-1.709,3.395a19.669,19.669,0,0,0-.731,4.139c-.152.858-.471,2.575-1.461,2.688.249-2.134.422-4.186.453-5.892.05-2.7-.07-6.259-.22-9.916C87.961,261.495,88.164,260.983,88.367,260.46Z" fill="#121011"/>
            <path id="Path_130" data-name="Path 130" d="M123.134,241.109c-3.744,1.144-9.7,2.454-13.463.805a43.157,43.157,0,0,0-5.444-2.427c-.087-.883-.182-1.657-.331-2.7,3.339-1,8.388-2.266,11.746-2.268,9.816-.007,13.736,1.137,14.168,1.939C131.019,238.7,124.835,240.589,123.134,241.109Z" fill="#422b22"/>
            <path id="Path_131" data-name="Path 131" d="M93.3,235.617c2.284-2.139,7.388-3.019,11.995-3.362l-.305.212c.055,2.605-4.161,3.324-5.588,1.877-.408,1.489-1.684,1.2-3.186,1.176-1.321-.019-1.655.891-2.382,2.137-.769,1.319-1.869.6-2.9,1.487-.831.722-.984,1.9-2.24,1.972A20.689,20.689,0,0,1,93.3,235.617Z" fill="#272127"/>
            <path id="Path_132" data-name="Path 132" d="M209.526,233.843a11.707,11.707,0,0,0-4.858,3.354c-1.359,1.687-1.786,4.348-4.412,4.492-2.311.127-9.629-5.81-10.179-8.073-.964-3.967,12.151-4.043,14.851-4.963,2.974-1.585,7.387-1.791,12.692-2.406C221.464,231.275,212.307,232.706,209.526,233.843Z" fill="#422b22"/>
            <path id="Path_133" data-name="Path 133" d="M145.686,290.448c-10.255-3.084-10.46,1.421-14.115,2.75h0c-3.653-2.591-5.772-3.7-8.568-3.183A8.35,8.35,0,0,1,125.215,289C135,286.221,138.123,287.092,145.686,290.448Z" fill="#6c5b51"/>
            <path id="Path_134" data-name="Path 134" d="M97.563,306.287c-.5,1.2-.408,3.827-1.137,4.658-.561.641-1.649.79-2.2,1.818-2.148-4.11,5.382-13.513,6.6-12.409A42.513,42.513,0,0,0,97.563,306.287Z" fill="#907d6e"/>
            <path id="Path_135" data-name="Path 135" d="M227.894,270.169a13.972,13.972,0,0,1,.19-4.579A20.591,20.591,0,0,1,229.3,261.3a31.253,31.253,0,0,1,1.8-3.964c.591-1,2.32-2.29,2.754-3.627a3.274,3.274,0,0,1-.29,3.316,25.6,25.6,0,0,0-5.555,11.955C227.961,269.365,227.923,269.762,227.894,270.169Z" fill="#6c5b51"/>
            <path id="Path_136" data-name="Path 136" d="M203.759,321.5a11.659,11.659,0,0,0-.342-2.425l1.577-.36c-.958,1.579-.318,4.664.565,6.253s2.281,2.845,3.119,4.479c1.94,3.779-.355,8.763.51,12.782a2.612,2.612,0,0,0,1.318,2.035c1,.506,2.194-.262,3.07.192.522.272,1.049,1.637,1.484,2.133a4.6,4.6,0,0,0,2.124,1.466,4.3,4.3,0,0,0,2.4-.25c-.318,1.249-3.255,1.5-5.714,1.61-3.015.134-2.013-1.524-2.33-2.933s-1.534-1.35-2.764-2.212-1.153-6.6-1.952-10.643C205.4,326.421,203.777,324.758,203.759,321.5Z" fill="#b1a08e"/>
            <path id="Path_137" data-name="Path 137" d="M124.242,309.21c1.116-.23,1.7,1.473,2.246,1.434.74-.053.479-.7.454-2.312a2.749,2.749,0,0,0,.078.58c.16.659,1.067,2.214.139,2.593s-1.372-1.18-1.883-1.711A2.041,2.041,0,0,0,124.242,309.21Z" fill="#9b5044"/>
            <path id="Path_138" data-name="Path 138" d="M112.072,310.7c.205.227.064.957.3,1.406.323.624,1.05.3,1.329-.4-.231.687-.53,1.474-1.179,1.285S112.06,311.617,112.072,310.7Z" fill="#9b5044"/>
            <path id="Path_139" data-name="Path 139" d="M222.6,245.557c0,3.264-.191,6.614,0,9.768.189,3.1.853,6.525,2.891,9.069a21.362,21.362,0,0,1,2.691,3.448,5.932,5.932,0,0,1,1.091-4.046c.727-.975-1.322-3.112-1.714-4.483-.934-3.264-1.9-6.715-2.891-9.946C223.7,246.207,222.6,245.557,222.6,245.557Z" fill="#6c5b51"/>
            <path id="Path_140" data-name="Path 140" d="M219.754,247.468a10.393,10.393,0,0,1,2.291-3.413,5.39,5.39,0,0,1,2.617-.691l.05.2c-.166.208-.33.419-.482.636-1.258,1.789-1.35,4.48-2.788,6.1-1.242,1.4-2.443,1.236-3.269.354C218.1,250.587,219.313,248.447,219.754,247.468Z" fill="#121011"/>
          </g>
        </g>
      </g>
    </g>
    <g id="Group_31" data-name="Group 31">
      <path id="Path_141" data-name="Path 141" d="M316.679,251.549c-.206,0-.289.082-.371.33l-2.229,5.9a8.038,8.038,0,0,0-.619,2.518c0,.742.372,1.278,1.65,1.278h.619c.5,0,.62.083.62.33,0,.33-.248.413-.7.413-1.32,0-3.094-.124-4.374-.124-.454,0-2.722.124-4.868.124-.537,0-.784-.083-.784-.413,0-.247.165-.33.495-.33a12.62,12.62,0,0,0,1.28-.082c1.9-.248,2.681-1.65,3.506-3.714l10.357-25.911c.495-1.2.742-1.65,1.155-1.65.371,0,.618.371,1.031,1.32.991,2.27,7.592,19.1,10.233,25.375,1.567,3.714,2.764,4.291,3.631,4.5a9.029,9.029,0,0,0,1.733.165c.33,0,.536.042.536.33,0,.33-.372.413-1.9.413-1.486,0-4.5,0-7.8-.083-.742-.041-1.238-.041-1.238-.33,0-.247.166-.33.578-.371a.672.672,0,0,0,.371-.949l-3.3-8.747a.4.4,0,0,0-.412-.288Zm8.417-2.064c.206,0,.247-.124.206-.247l-3.713-10.191c-.041-.165-.083-.372-.207-.372s-.206.207-.247.372l-3.8,10.149c-.041.165,0,.289.165.289Z" fill="#9e4d1b"/>
      <path id="Path_142" data-name="Path 142" d="M348.286,256.706c.082,3.218.619,4.291,1.444,4.58a6.574,6.574,0,0,0,2.146.288c.453,0,.7.083.7.33,0,.33-.371.413-.949.413-2.682,0-4.332-.124-5.116-.124-.371,0-2.311.124-4.456.124-.536,0-.908-.041-.908-.413,0-.247.248-.33.661-.33a7.321,7.321,0,0,0,1.856-.206c1.072-.33,1.238-1.526,1.279-5.116l.371-24.426c0-.825.124-1.4.537-1.4.454,0,.825.537,1.526,1.279.5.537,6.768,7.262,12.791,13.245,2.806,2.8,8.376,8.747,9.077,9.407h.206l-.412-18.526c-.041-2.516-.413-3.3-1.4-3.713a6.717,6.717,0,0,0-2.187-.248c-.5,0-.66-.123-.66-.371,0-.33.454-.371,1.072-.371,2.146,0,4.126.124,4.993.124.454,0,2.022-.124,4.043-.124.537,0,.95.041.95.371,0,.248-.247.371-.744.371a4.483,4.483,0,0,0-1.237.124c-1.155.33-1.485,1.2-1.526,3.507l-.454,26.035c0,.908-.165,1.28-.536,1.28-.455,0-.95-.455-1.4-.909-2.6-2.475-7.88-7.88-12.171-12.13-4.5-4.456-9.078-9.613-9.82-10.4h-.124Z" fill="#9e4d1b"/>
      <path id="Path_143" data-name="Path 143" d="M387.115,243.09c0-6.272,0-7.427-.083-8.747-.082-1.4-.494-2.1-1.4-2.311a5.893,5.893,0,0,0-1.485-.165c-.414,0-.661-.082-.661-.412,0-.248.33-.33.991-.33,1.567,0,4.167.124,5.364.124,1.031,0,3.465-.124,5.033-.124.536,0,.866.082.866.33,0,.33-.247.412-.66.412a7.02,7.02,0,0,0-1.237.124c-1.114.206-1.445.908-1.528,2.352-.082,1.32-.082,2.475-.082,8.747v7.262c0,4,0,7.261.165,9.036.125,1.114.414,1.856,1.651,2.021a17.27,17.27,0,0,0,2.1.165c.453,0,.661.124.661.33,0,.289-.331.413-.785.413-2.723,0-5.322-.124-6.436-.124-.949,0-3.549.124-5.2.124-.537,0-.825-.124-.825-.413,0-.206.164-.33.661-.33a6.694,6.694,0,0,0,1.484-.165c.826-.165,1.073-.866,1.2-2.062.206-1.734.206-4.993.206-8.995Z" fill="#9e4d1b"/>
      <path id="Path_144" data-name="Path 144" d="M409.355,231.29c.124-.7.373-1.073.7-1.073s.577.206,1.113,1.279l11.264,23.271,11.222-23.56c.33-.66.537-.99.908-.99s.62.413.743,1.279l3.754,25.5c.373,2.6.785,3.8,2.023,4.167a8.25,8.25,0,0,0,2.558.412c.371,0,.66.042.66.289,0,.33-.495.454-1.074.454-1.031,0-6.724-.124-8.375-.248-.949-.082-1.2-.206-1.2-.453,0-.207.166-.33.454-.454.248-.083.372-.619.206-1.774l-2.474-18.155h-.166l-8.994,18.733c-.95,1.938-1.156,2.31-1.527,2.31s-.784-.825-1.444-2.063c-.99-1.9-4.25-8.211-4.745-9.366-.371-.867-2.847-6.065-4.291-9.159h-.165l-2.146,16.42a16.466,16.466,0,0,0-.124,1.94c0,.784.537,1.155,1.238,1.32a7.98,7.98,0,0,0,1.733.206c.33,0,.619.083.619.289,0,.371-.371.454-.99.454-1.733,0-3.59-.124-4.332-.124-.784,0-2.765.124-4.085.124-.412,0-.742-.083-.742-.454,0-.206.247-.289.66-.289a5.33,5.33,0,0,0,1.237-.123c1.155-.248,1.485-1.857,1.692-3.26Z" fill="#9e4d1b"/>
      <path id="Path_145" data-name="Path 145" d="M454.992,251.549c-.206,0-.289.082-.371.33l-2.228,5.9a8.01,8.01,0,0,0-.619,2.518c0,.742.372,1.278,1.651,1.278h.618c.495,0,.619.083.619.33,0,.33-.247.413-.7.413-1.32,0-3.1-.124-4.374-.124-.453,0-2.723.124-4.868.124-.536,0-.784-.083-.784-.413,0-.247.165-.33.495-.33a12.582,12.582,0,0,0,1.279-.082c1.9-.248,2.682-1.65,3.507-3.714l10.356-25.911c.495-1.2.742-1.65,1.156-1.65.371,0,.619.371,1.031,1.32.99,2.27,7.592,19.1,10.232,25.375,1.569,3.714,2.765,4.291,3.631,4.5a9.033,9.033,0,0,0,1.732.165c.331,0,.538.042.538.33,0,.33-.371.413-1.9.413-1.485,0-4.5,0-7.8-.083-.743-.041-1.237-.041-1.237-.33,0-.247.164-.33.577-.371a.672.672,0,0,0,.371-.949l-3.3-8.747a.4.4,0,0,0-.412-.288Zm8.417-2.064c.206,0,.248-.124.206-.247L459.9,239.047c-.042-.165-.083-.372-.206-.372s-.207.207-.248.372l-3.8,10.149c-.041.165,0,.289.165.289Z" fill="#9e4d1b"/>
      <path id="Path_146" data-name="Path 146" d="M489.446,250.352c0,5.281,0,8.128.867,8.871.7.619,1.774.908,4.993.908,2.186,0,3.8-.042,4.827-1.155a5.193,5.193,0,0,0,1.073-2.476c.041-.372.123-.619.453-.619.289,0,.33.206.33.7a32.558,32.558,0,0,1-.619,4.745c-.247.907-.453,1.114-2.6,1.114-2.97,0-5.116-.083-6.973-.124-1.857-.083-3.342-.124-5.033-.124-.454,0-1.362,0-2.352.041-.949,0-2.021.083-2.848.083-.536,0-.824-.124-.824-.413,0-.206.164-.33.66-.33a6.7,6.7,0,0,0,1.485-.165c.826-.165,1.032-1.072,1.2-2.268.206-1.734.206-4.994.206-8.789V243.09c0-6.272,0-7.427-.083-8.747-.082-1.4-.412-2.063-1.773-2.352a6.16,6.16,0,0,0-1.362-.124c-.454,0-.7-.082-.7-.371s.289-.371.908-.371c1.939,0,4.538.124,5.653.124.99,0,4-.124,5.611-.124.577,0,.866.082.866.371s-.247.371-.742.371a11.053,11.053,0,0,0-1.609.124c-1.115.206-1.445.908-1.527,2.352-.083,1.32-.083,2.475-.083,8.747Z" fill="#9e4d1b"/>
      <path id="Path_147" data-name="Path 147" d="M523.488,261.822c-.66-.289-.784-.495-.784-1.4,0-2.269.166-4.744.207-5.4.041-.619.165-1.074.495-1.074.371,0,.412.372.412.7a8.672,8.672,0,0,0,.372,2.1,5.685,5.685,0,0,0,5.9,4.167c3.714,0,5.529-2.517,5.529-4.7,0-2.022-.619-3.92-4.044-6.6l-1.9-1.485c-4.539-3.549-6.107-6.436-6.107-9.779,0-4.538,3.8-7.8,9.532-7.8a19.959,19.959,0,0,1,5.487.7c.371.082.577.206.577.5,0,.536-.165,1.733-.165,4.951,0,.908-.124,1.238-.454,1.238-.288,0-.412-.248-.412-.743a4.99,4.99,0,0,0-1.073-2.723,5.227,5.227,0,0,0-4.5-2.022c-3.052,0-4.91,1.774-4.91,4.25,0,1.9.949,3.342,4.374,5.941l1.156.867c4.992,3.754,6.766,6.6,6.766,10.521a8.314,8.314,0,0,1-3.878,7.179,11.928,11.928,0,0,1-6.56,1.692A14.3,14.3,0,0,1,523.488,261.822Z" fill="#9e4d1b"/>
      <path id="Path_148" data-name="Path 148" d="M553.486,251.549c-.206,0-.289.082-.371.33l-2.228,5.9a8.029,8.029,0,0,0-.618,2.518c0,.742.371,1.278,1.65,1.278h.618c.495,0,.619.083.619.33,0,.33-.247.413-.7.413-1.32,0-3.1-.124-4.374-.124-.453,0-2.723.124-4.868.124-.536,0-.784-.083-.784-.413,0-.247.165-.33.495-.33a12.582,12.582,0,0,0,1.279-.082c1.9-.248,2.682-1.65,3.507-3.714l10.356-25.911c.5-1.2.743-1.65,1.156-1.65.371,0,.619.371,1.031,1.32.99,2.27,7.592,19.1,10.232,25.375,1.569,3.714,2.765,4.291,3.631,4.5a9.035,9.035,0,0,0,1.733.165c.33,0,.537.042.537.33,0,.33-.371.413-1.9.413-1.485,0-4.5,0-7.8-.083-.743-.041-1.237-.041-1.237-.33,0-.247.164-.33.577-.371a.672.672,0,0,0,.371-.949l-3.3-8.747a.4.4,0,0,0-.413-.288Zm8.417-2.064c.206,0,.248-.124.206-.247L558.4,239.047c-.042-.165-.083-.372-.206-.372s-.207.207-.248.372l-3.8,10.149c-.041.165,0,.289.166.289Z" fill="#9e4d1b"/>
      <path id="Path_149" data-name="Path 149" d="M587.94,250.352c0,5.281,0,8.128.868,8.871.7.619,1.773.908,4.992.908,2.186,0,3.8-.042,4.827-1.155A5.193,5.193,0,0,0,599.7,256.5c.041-.372.123-.619.453-.619.289,0,.33.206.33.7a32.565,32.565,0,0,1-.619,4.745c-.247.907-.453,1.114-2.6,1.114-2.971,0-5.117-.083-6.974-.124-1.856-.083-3.342-.124-5.033-.124-.454,0-1.362,0-2.352.041-.949,0-2.021.083-2.847.083-.537,0-.825-.124-.825-.413,0-.206.164-.33.661-.33a6.7,6.7,0,0,0,1.484-.165c.826-.165,1.032-1.072,1.2-2.268.206-1.734.206-4.994.206-8.789V243.09c0-6.272,0-7.427-.083-8.747-.082-1.4-.412-2.063-1.773-2.352a6.154,6.154,0,0,0-1.362-.124c-.454,0-.7-.082-.7-.371s.289-.371.908-.371c1.939,0,4.539.124,5.653.124.99,0,4-.124,5.611-.124.577,0,.866.082.866.371s-.247.371-.742.371a11.053,11.053,0,0,0-1.609.124c-1.114.206-1.445.908-1.527,2.352-.083,1.32-.083,2.475-.083,8.747Z" fill="#9e4d1b"/>
      <path id="Path_150" data-name="Path 150" d="M609.811,243.09c0-6.272,0-7.427-.083-8.747-.082-1.4-.413-2.063-1.774-2.352a8.522,8.522,0,0,0-1.609-.124c-.454,0-.7-.082-.7-.371s.289-.371.907-.371c1.114,0,2.31.041,3.343.041,1.072.041,2.021.083,2.6.083,1.32,0,9.531,0,10.316-.042a16.5,16.5,0,0,0,1.773-.247,3.815,3.815,0,0,1,.66-.165c.207,0,.248.165.248.371a26.54,26.54,0,0,0-.33,2.682c-.041.413-.124,2.228-.206,2.723-.042.206-.124.454-.413.454s-.371-.207-.371-.578a4.41,4.41,0,0,0-.248-1.485c-.288-.743-.7-1.238-2.764-1.485-.7-.083-5.034-.165-5.859-.165-.206,0-.289.124-.289.412v10.439c0,.289.042.454.289.454.908,0,5.652,0,6.6-.083a2.876,2.876,0,0,0,1.981-.619c.289-.33.454-.536.66-.536.165,0,.289.082.289.33s-.165.908-.33,3.012c-.041.825-.165,2.475-.165,2.764,0,.33,0,.785-.371.785a.328.328,0,0,1-.372-.372,10.912,10.912,0,0,0-.164-1.485c-.207-.826-.784-1.444-2.311-1.609-.784-.083-4.869-.124-5.859-.124-.206,0-.248.165-.248.412v3.26c0,1.4-.041,5.2,0,6.4.083,2.847.743,3.466,4.951,3.466a10.468,10.468,0,0,0,3.879-.5c1.072-.495,1.568-1.362,1.856-3.053.083-.454.165-.619.454-.619.33,0,.33.33.33.742a32.4,32.4,0,0,1-.536,4.58c-.289,1.073-.66,1.073-2.228,1.073-3.1,0-5.363-.083-7.138-.124-1.774-.083-3.053-.124-4.291-.124-.454,0-1.361,0-2.351.041-.95,0-2.022.083-2.848.083-.536,0-.824-.124-.824-.413,0-.206.164-.33.66-.33a6.694,6.694,0,0,0,1.484-.165c.826-.165,1.032-1.072,1.2-2.268.207-1.734.207-4.994.207-8.789Z" fill="#9e4d1b"/>
    </g>
  </g>
</svg>
